ISO-10303-21;
HEADER;
FILE_DESCRIPTION (( 'STEP AP214' ),
    '1' );
FILE_NAME ('Parça 83.STEP',
    '2026-05-26T12:02:26',
    ( '' ),
    ( '' ),
    'SwSTEP 2.0',
    'SolidWorks 2024',
    '' );
FILE_SCHEMA (( 'AUTOMOTIVE_DESIGN' ));
ENDSEC;

DATA;
#1 = LINE ( 'NONE', #50, #463 ) ;
#2 = CIRCLE ( 'NONE', #100, 3.500000000000000000 ) ;
#3 = ORIENTED_EDGE ( 'NONE', *, *, #348, .T. ) ;
#4 = CIRCLE ( 'NONE', #56, 4.000000000000000000 ) ;
#5 = EDGE_CURVE ( 'NONE', #492, #262, #400, .T. ) ;
#6 = DIRECTION ( 'NONE',  ( -0.000000000000000000, -0.000000000000000000, -1.000000000000000000 ) ) ;
#7 = DIRECTION ( 'NONE',  ( 1.000000000000000000, 0.000000000000000000, 0.000000000000000000 ) ) ;
#8 = EDGE_LOOP ( 'NONE', ( #393, #107 ) ) ;
#9 = FACE_BOUND ( 'NONE', #118, .T. ) ;
#10 = CARTESIAN_POINT ( 'NONE',  ( -9.999999999999989342, 10.00000000000000000, 4.999999999999997335 ) ) ;
#11 = DIRECTION ( 'NONE',  ( 0.000000000000000000, 0.000000000000000000, 1.000000000000000000 ) ) ;
#12 = ORIENTED_EDGE ( 'NONE', *, *, #102, .T. ) ;
#13 = VECTOR ( 'NONE', #534, 1000.000000000000000 ) ;
#14 = EDGE_CURVE ( 'NONE', #397, #447, #235, .T. ) ;
#15 = DIRECTION ( 'NONE',  ( 1.000000000000000000, 0.000000000000000000, 0.000000000000000000 ) ) ;
#16 = MANIFOLD_SOLID_BREP ( 'Radyus1', #89 ) ;
#17 = ORIENTED_EDGE ( 'NONE', *, *, #94, .F. ) ;
#18 = DIRECTION ( 'NONE',  ( -1.000000000000000000, 0.000000000000000000, 0.000000000000000000 ) ) ;
#19 = DIRECTION ( 'NONE',  ( -0.000000000000000000, -1.000000000000000000, -0.000000000000000000 ) ) ;
#20 = EDGE_LOOP ( 'NONE', ( #459, #514, #49, #188 ) ) ;
#21 = CARTESIAN_POINT ( 'NONE',  ( -9.999999999999989342, 10.00000000000000000, 24.99999999999999645 ) ) ;
#22 = ORIENTED_EDGE ( 'NONE', *, *, #440, .F. ) ;
#23 = EDGE_CURVE ( 'NONE', #149, #151, #29, .T. ) ;
#24 = LINE ( 'NONE', #141, #281 ) ;
#25 = VERTEX_POINT ( 'NONE', #407 ) ;
#26 = CARTESIAN_POINT ( 'NONE',  ( 0.000000000000000000, 0.000000000000000000, 30.00000000000000000 ) ) ;
#27 = EDGE_LOOP ( 'NONE', ( #135, #161, #171, #35 ) ) ;
#28 = ADVANCED_FACE ( 'NONE', ( #540 ), #533, .F. ) ;
#29 = LINE ( 'NONE', #76, #464 ) ;
#30 = VECTOR ( 'NONE', #192, 1000.000000000000000 ) ;
#31 = SURFACE_STYLE_USAGE ( .BOTH. , #114 ) ;
#32 = DIRECTION ( 'NONE',  ( -0.000000000000000000, -0.000000000000000000, -1.000000000000000000 ) ) ;
#33 = DIRECTION ( 'NONE',  ( 0.000000000000000000, -0.000000000000000000, 1.000000000000000000 ) ) ;
#34 = ORIENTED_EDGE ( 'NONE', *, *, #232, .F. ) ;
#35 = ORIENTED_EDGE ( 'NONE', *, *, #23, .F. ) ;
#36 = EDGE_CURVE ( 'NONE', #307, #151, #2, .T. ) ;
#37 =( GEOMETRIC_REPRESENTATION_CONTEXT ( 3 ) GLOBAL_UNCERTAINTY_ASSIGNED_CONTEXT ( ( #39 ) ) GLOBAL_UNIT_ASSIGNED_CONTEXT ( ( #242, #278, #159 ) ) REPRESENTATION_CONTEXT ( 'NONE', 'WORKASPACE' ) );
#38 = AXIS2_PLACEMENT_3D ( 'NONE', #134, #379, #261 ) ;
#39 = UNCERTAINTY_MEASURE_WITH_UNIT (LENGTH_MEASURE( 1.000000000000000082E-05 ), #242, 'distance_accuracy_value', 'NONE');
#40 = DIRECTION ( 'NONE',  ( 0.000000000000000000, 0.000000000000000000, 1.000000000000000000 ) ) ;
#41 = PLANE ( 'NONE',  #38 ) ;
#42 = DIRECTION ( 'NONE',  ( 0.000000000000000000, 0.000000000000000000, 1.000000000000000000 ) ) ;
#43 = CARTESIAN_POINT ( 'NONE',  ( -3.500000000000000000, 0.000000000000000000, 24.99999999999999645 ) ) ;
#44 = AXIS2_PLACEMENT_3D ( 'NONE', #496, #255, #332 ) ;
#45 = ORIENTED_EDGE ( 'NONE', *, *, #326, .T. ) ;
#46 = AXIS2_PLACEMENT_3D ( 'NONE', #82, #32, #490 ) ;
#47 = LINE ( 'NONE', #10, #220 ) ;
#48 = DIRECTION ( 'NONE',  ( 0.000000000000000000, 0.000000000000000000, 1.000000000000000000 ) ) ;
#49 = ORIENTED_EDGE ( 'NONE', *, *, #23, .T. ) ;
#50 = CARTESIAN_POINT ( 'NONE',  ( -9.999999999999989342, 10.00000000000000000, 24.99999999999999645 ) ) ;
#51 = ORIENTED_EDGE ( 'NONE', *, *, #440, .T. ) ;
#52 = EDGE_CURVE ( 'NONE', #122, #492, #284, .T. ) ;
#53 = DIRECTION ( 'NONE',  ( -1.000000000000000000, -0.000000000000000000, -0.000000000000000000 ) ) ;
#54 = DIRECTION ( 'NONE',  ( -1.000000000000000000, 0.000000000000000000, 0.000000000000000000 ) ) ;
#55 = ORIENTED_EDGE ( 'NONE', *, *, #356, .F. ) ;
#56 = AXIS2_PLACEMENT_3D ( 'NONE', #83, #40, #462 ) ;
#57 = CARTESIAN_POINT ( 'NONE',  ( 0.000000000000000000, 0.000000000000000000, 30.00000000000000000 ) ) ;
#58 = CARTESIAN_POINT ( 'NONE',  ( 3.500000000000000000, 4.286263797015736595E-16, 0.000000000000000000 ) ) ;
#59 = ORIENTED_EDGE ( 'NONE', *, *, #133, .T. ) ;
#60 = CARTESIAN_POINT ( 'NONE',  ( -10.00000000000000000, 13.99999999999999822, 30.00000000000000000 ) ) ;
#61 = EDGE_CURVE ( 'NONE', #252, #316, #333, .T. ) ;
#62 = VERTEX_POINT ( 'NONE', #364 ) ;
#63 = SHAPE_DEFINITION_REPRESENTATION ( #451, #277 ) ;
#64 = DIRECTION ( 'NONE',  ( -1.000000000000000000, 0.000000000000000000, 0.000000000000000000 ) ) ;
#65 = ORIENTED_EDGE ( 'NONE', *, *, #5, .T. ) ;
#66 = VECTOR ( 'NONE', #19, 1000.000000000000000 ) ;
#67 = LINE ( 'NONE', #233, #208 ) ;
#68 = ORIENTED_EDGE ( 'NONE', *, *, #276, .F. ) ;
#69 = EDGE_CURVE ( 'NONE', #397, #282, #1, .T. ) ;
#70 = VERTEX_POINT ( 'NONE', #386 ) ;
#71 = DIRECTION ( 'NONE',  ( 1.000000000000000000, 0.000000000000000000, 0.000000000000000000 ) ) ;
#72 = AXIS2_PLACEMENT_3D ( 'NONE', #110, #33, #243 ) ;
#73 = PLANE ( 'NONE',  #72 ) ;
#74 = EDGE_LOOP ( 'NONE', ( #366, #516, #330, #22 ) ) ;
#75 = LINE ( 'NONE', #368, #13 ) ;
#76 = CARTESIAN_POINT ( 'NONE',  ( -3.500000000000000000, 0.000000000000000000, 30.00000000000000000 ) ) ;
#77 = EDGE_CURVE ( 'NONE', #256, #99, #248, .T. ) ;
#78 = DIRECTION ( 'NONE',  ( -0.000000000000000000, -0.000000000000000000, -1.000000000000000000 ) ) ;
#79 = EDGE_LOOP ( 'NONE', ( #183, #45, #259, #165 ) ) ;
#80 = VECTOR ( 'NONE', #157, 1000.000000000000000 ) ;
#81 = DIRECTION ( 'NONE',  ( 0.000000000000000000, 1.000000000000000000, 0.000000000000000000 ) ) ;
#82 = CARTESIAN_POINT ( 'NONE',  ( 0.000000000000000000, 0.000000000000000000, 4.999999999999997335 ) ) ;
#83 = CARTESIAN_POINT ( 'NONE',  ( 6.000000000000000000, 13.99999999999999822, 30.00000000000000000 ) ) ;
#84 = CARTESIAN_POINT ( 'NONE',  ( 3.500000000000000000, 4.286263797015736595E-16, 30.00000000000000000 ) ) ;
#85 = CYLINDRICAL_SURFACE ( 'NONE', #143, 4.000000000000000000 ) ;
#86 = ORIENTED_EDGE ( 'NONE', *, *, #444, .T. ) ;
#87 = CARTESIAN_POINT ( 'NONE',  ( 0.000000000000000000, 0.000000000000000000, 24.99999999999999645 ) ) ;
#88 = FACE_OUTER_BOUND ( 'NONE', #200, .T. ) ;
#89 = CLOSED_SHELL ( 'NONE', ( #339, #481, #140, #416, #527, #461, #369, #470, #112, #211, #304, #396, #218, #28, #180, #423 ) ) ;
#90 = VERTEX_POINT ( 'NONE', #541 ) ;
#91 = VECTOR ( 'NONE', #352, 1000.000000000000000 ) ;
#92 = LINE ( 'NONE', #176, #402 ) ;
#93 = ORIENTED_EDGE ( 'NONE', *, *, #285, .T. ) ;
#94 = EDGE_CURVE ( 'NONE', #529, #267, #377, .T. ) ;
#95 = CARTESIAN_POINT ( 'NONE',  ( 0.000000000000000000, 0.000000000000000000, 0.000000000000000000 ) ) ;
#96 = EDGE_LOOP ( 'NONE', ( #210, #265, #221, #420 ) ) ;
#97 = PLANE ( 'NONE',  #287 ) ;
#98 = LINE ( 'NONE', #223, #452 ) ;
#99 = VERTEX_POINT ( 'NONE', #170 ) ;
#100 = AXIS2_PLACEMENT_3D ( 'NONE', #491, #408, #121 ) ;
#101 = VECTOR ( 'NONE', #274, 1000.000000000000000 ) ;
#102 = EDGE_CURVE ( 'NONE', #99, #378, #280, .T. ) ;
#103 = CYLINDRICAL_SURFACE ( 'NONE', #201, 10.00000000000000000 ) ;
#104 = ORIENTED_EDGE ( 'NONE', *, *, #376, .T. ) ;
#105 = DIRECTION ( 'NONE',  ( -0.000000000000000000, -0.000000000000000000, -1.000000000000000000 ) ) ;
#106 = CARTESIAN_POINT ( 'NONE',  ( -9.999999999999989342, 0.000000000000000000, 24.99999999999999645 ) ) ;
#107 = ORIENTED_EDGE ( 'NONE', *, *, #124, .T. ) ;
#108 = AXIS2_PLACEMENT_3D ( 'NONE', #500, #48, #7 ) ;
#109 = VECTOR ( 'NONE', #528, 1000.000000000000000 ) ;
#110 = CARTESIAN_POINT ( 'NONE',  ( -9.999999999999989342, -10.00000000000000000, 24.99999999999999645 ) ) ;
#111 = ORIENTED_EDGE ( 'NONE', *, *, #290, .T. ) ;
#112 = ADVANCED_FACE ( 'NONE', ( #88 ), #337, .F. ) ;
#113 = PRODUCT ( 'Par\X2\00e7\X0\a 83', 'Par\X2\00e7\X0\a 83', '', ( #473 ) ) ;
#114 = SURFACE_SIDE_STYLE ('',( #371 ) ) ;
#115 = CARTESIAN_POINT ( 'NONE',  ( -9.999999999999989342, 10.00000000000000000, 4.999999999999997335 ) ) ;
#116 = CARTESIAN_POINT ( 'NONE',  ( -3.500000000000000000, 0.000000000000000000, 4.999999999999997335 ) ) ;
#117 = AXIS2_PLACEMENT_3D ( 'NONE', #384, #11, #249 ) ;
#118 = EDGE_LOOP ( 'NONE', ( #523, #155 ) ) ;
#119 = CARTESIAN_POINT ( 'NONE',  ( 10.00000000000000000, 10.00000000000000000, 4.999999999999997335 ) ) ;
#120 = LINE ( 'NONE', #198, #109 ) ;
#121 = DIRECTION ( 'NONE',  ( 1.000000000000000000, 0.000000000000000000, 0.000000000000000000 ) ) ;
#122 = VERTEX_POINT ( 'NONE', #295 ) ;
#123 = DIRECTION ( 'NONE',  ( 0.000000000000000000, 0.000000000000000000, 1.000000000000000000 ) ) ;
#124 = EDGE_CURVE ( 'NONE', #316, #252, #346, .T. ) ;
#125 = DIRECTION ( 'NONE',  ( 0.000000000000000000, 0.000000000000000000, -1.000000000000000000 ) ) ;
#126 = LINE ( 'NONE', #128, #413 ) ;
#127 = CYLINDRICAL_SURFACE ( 'NONE', #498, 3.500000000000000000 ) ;
#128 = CARTESIAN_POINT ( 'NONE',  ( 10.00000000000000000, 0.000000000000000000, 30.00000000000000000 ) ) ;
#129 = ORIENTED_EDGE ( 'NONE', *, *, #539, .F. ) ;
#130 = LINE ( 'NONE', #340, #194 ) ;
#131 = CARTESIAN_POINT ( 'NONE',  ( 6.000000000000000000, 13.99999999999999822, 30.00000000000000000 ) ) ;
#132 = DIRECTION ( 'NONE',  ( -1.000000000000000000, 0.000000000000000000, 0.000000000000000000 ) ) ;
#133 = EDGE_CURVE ( 'NONE', #313, #90, #126, .T. ) ;
#134 = CARTESIAN_POINT ( 'NONE',  ( -9.999999999999989342, 10.00000000000000000, 4.999999999999997335 ) ) ;
#135 = ORIENTED_EDGE ( 'NONE', *, *, #269, .T. ) ;
#136 = PLANE ( 'NONE',  #518 ) ;
#137 = CARTESIAN_POINT ( 'NONE',  ( -6.000000000000000000, 13.99999999999999822, 30.00000000000000000 ) ) ;
#138 = CARTESIAN_POINT ( 'NONE',  ( 3.500000000000000000, 4.286263797015736595E-16, 30.00000000000000000 ) ) ;
#139 = ORIENTED_EDGE ( 'NONE', *, *, #494, .T. ) ;
#140 = ADVANCED_FACE ( 'NONE', ( #258 ), #419, .T. ) ;
#141 = CARTESIAN_POINT ( 'NONE',  ( 10.00000000000000000, 10.00000000000000000, 24.99999999999999645 ) ) ;
#142 = ORIENTED_EDGE ( 'NONE', *, *, #102, .F. ) ;
#143 = AXIS2_PLACEMENT_3D ( 'NONE', #131, #163, #216 ) ;
#144 = CARTESIAN_POINT ( 'NONE',  ( 3.500000000000000000, 4.286263797015736595E-16, 30.00000000000000000 ) ) ;
#145 = ORIENTED_EDGE ( 'NONE', *, *, #189, .F. ) ;
#146 = DIRECTION ( 'NONE',  ( 1.000000000000000000, 0.000000000000000000, 0.000000000000000000 ) ) ;
#147 = EDGE_LOOP ( 'NONE', ( #185, #385, #289, #479 ) ) ;
#148 = EDGE_CURVE ( 'NONE', #511, #25, #209, .T. ) ;
#149 = VERTEX_POINT ( 'NONE', #458 ) ;
#150 = CARTESIAN_POINT ( 'NONE',  ( 0.000000000000000000, 0.000000000000000000, 0.000000000000000000 ) ) ;
#151 = VERTEX_POINT ( 'NONE', #43 ) ;
#152 = ORIENTED_EDGE ( 'NONE', *, *, #14, .T. ) ;
#153 = EDGE_CURVE ( 'NONE', #90, #122, #4, .T. ) ;
#154 = CARTESIAN_POINT ( 'NONE',  ( -9.999999999999989342, 10.00000000000000000, 24.99999999999999645 ) ) ;
#155 = ORIENTED_EDGE ( 'NONE', *, *, #412, .T. ) ;
#156 = COLOUR_RGB ( '',0.7921568627450980005, 0.8196078431372548767, 0.9333333333333333481 ) ;
#157 = DIRECTION ( 'NONE',  ( -0.000000000000000000, -0.000000000000000000, 1.000000000000000000 ) ) ;
#158 = CIRCLE ( 'NONE', #465, 4.000000000000000000 ) ;
#159 =( NAMED_UNIT ( * ) SI_UNIT ( $, .STERADIAN. ) SOLID_ANGLE_UNIT ( ) );
#160 = DIRECTION ( 'NONE',  ( 1.000000000000000000, -0.000000000000000000, -0.000000000000000000 ) ) ;
#161 = ORIENTED_EDGE ( 'NONE', *, *, #246, .T. ) ;
#162 = CYLINDRICAL_SURFACE ( 'NONE', #415, 3.500000000000000000 ) ;
#163 = DIRECTION ( 'NONE',  ( 0.000000000000000000, 0.000000000000000000, -1.000000000000000000 ) ) ;
#164 = PRODUCT_DEFINITION ( 'UNKNOWN', '', #453, #320 ) ;
#165 = ORIENTED_EDGE ( 'NONE', *, *, #204, .F. ) ;
#166 = AXIS2_PLACEMENT_3D ( 'NONE', #203, #493, #196 ) ;
#167 = AXIS2_PLACEMENT_3D ( 'NONE', #448, #78, #322 ) ;
#168 = CARTESIAN_POINT ( 'NONE',  ( -6.000000000000000000, 13.99999999999999822, 0.000000000000000000 ) ) ;
#169 = CARTESIAN_POINT ( 'NONE',  ( -10.00000000000000000, 0.000000000000000000, 30.00000000000000000 ) ) ;
#170 = CARTESIAN_POINT ( 'NONE',  ( -10.00000000000000000, 13.99999999999999822, 0.000000000000000000 ) ) ;
#171 = ORIENTED_EDGE ( 'NONE', *, *, #521, .F. ) ;
#172 = DIRECTION ( 'NONE',  ( 0.000000000000000000, 0.000000000000000000, 1.000000000000000000 ) ) ;
#173 = CARTESIAN_POINT ( 'NONE',  ( -10.00000000000000000, 13.99999999999999822, 30.00000000000000000 ) ) ;
#174 = DIRECTION ( 'NONE',  ( -0.000000000000000000, 1.000000000000000000, -0.000000000000000000 ) ) ;
#175 = STYLED_ITEM ( 'NONE', ( #199 ), #16 ) ;
#176 = CARTESIAN_POINT ( 'NONE',  ( -10.00000000000000000, 18.00000000000000000, 0.000000000000000000 ) ) ;
#177 = CIRCLE ( 'NONE', #446, 10.00000000000000000 ) ;
#178 = ORIENTED_EDGE ( 'NONE', *, *, #69, .T. ) ;
#179 = CARTESIAN_POINT ( 'NONE',  ( 0.000000000000000000, 0.000000000000000000, 24.99999999999999645 ) ) ;
#180 = ADVANCED_FACE ( 'NONE', ( #417 ), #85, .T. ) ;
#181 = EDGE_LOOP ( 'NONE', ( #467, #65, #358, #375, #530, #12 ) ) ;
#182 = FACE_OUTER_BOUND ( 'NONE', #234, .T. ) ;
#183 = ORIENTED_EDGE ( 'NONE', *, *, #94, .T. ) ;
#184 = DIRECTION ( 'NONE',  ( 0.000000000000000000, 0.000000000000000000, 1.000000000000000000 ) ) ;
#185 = ORIENTED_EDGE ( 'NONE', *, *, #153, .F. ) ;
#186 = VECTOR ( 'NONE', #291, 1000.000000000000000 ) ;
#187 = CARTESIAN_POINT ( 'NONE',  ( 0.000000000000000000, 0.000000000000000000, 30.00000000000000000 ) ) ;
#188 = ORIENTED_EDGE ( 'NONE', *, *, #36, .F. ) ;
#189 = EDGE_CURVE ( 'NONE', #526, #149, #254, .T. ) ;
#190 = DIRECTION ( 'NONE',  ( -0.000000000000000000, -0.000000000000000000, -1.000000000000000000 ) ) ;
#191 = ORIENTED_EDGE ( 'NONE', *, *, #502, .F. ) ;
#192 = DIRECTION ( 'NONE',  ( 0.000000000000000000, 0.000000000000000000, -1.000000000000000000 ) ) ;
#193 = AXIS2_PLACEMENT_3D ( 'NONE', #443, #374, #238 ) ;
#194 = VECTOR ( 'NONE', #6, 1000.000000000000000 ) ;
#195 = AXIS2_PLACEMENT_3D ( 'NONE', #57, #460, #302 ) ;
#196 = DIRECTION ( 'NONE',  ( 1.000000000000000000, 0.000000000000000000, 0.000000000000000000 ) ) ;
#197 = EDGE_CURVE ( 'NONE', #492, #378, #92, .T. ) ;
#198 = CARTESIAN_POINT ( 'NONE',  ( 10.00000000000000000, 10.00000000000000000, 4.999999999999997335 ) ) ;
#199 = PRESENTATION_STYLE_ASSIGNMENT (( #31 ) ) ;
#200 = EDGE_LOOP ( 'NONE', ( #191, #436, #538, #104 ) ) ;
#201 = AXIS2_PLACEMENT_3D ( 'NONE', #187, #522, #271 ) ;
#202 = CARTESIAN_POINT ( 'NONE',  ( -10.00000000000000000, 10.00000000000000000, 4.999999999999997335 ) ) ;
#203 = CARTESIAN_POINT ( 'NONE',  ( 6.000000000000000000, 13.99999999999999822, 0.000000000000000000 ) ) ;
#204 = EDGE_CURVE ( 'NONE', #529, #313, #507, .T. ) ;
#205 = DIRECTION ( 'NONE',  ( 0.000000000000000000, 0.000000000000000000, 1.000000000000000000 ) ) ;
#206 = DIRECTION ( 'NONE',  ( 0.000000000000000000, 0.000000000000000000, -1.000000000000000000 ) ) ;
#207 = CARTESIAN_POINT ( 'NONE',  ( 10.00000000000000000, 10.00000000000000000, 24.99999999999999645 ) ) ;
#208 = VECTOR ( 'NONE', #442, 1000.000000000000000 ) ;
#209 = LINE ( 'NONE', #300, #299 ) ;
#210 = ORIENTED_EDGE ( 'NONE', *, *, #237, .F. ) ;
#211 = ADVANCED_FACE ( 'NONE', ( #213 ), #344, .F. ) ;
#212 =( NAMED_UNIT ( * ) PLANE_ANGLE_UNIT ( ) SI_UNIT ( $, .RADIAN. ) );
#213 = FACE_OUTER_BOUND ( 'NONE', #323, .T. ) ;
#214 = ORIENTED_EDGE ( 'NONE', *, *, #290, .F. ) ;
#215 = DIRECTION ( 'NONE',  ( -0.000000000000000000, -0.000000000000000000, -1.000000000000000000 ) ) ;
#216 = DIRECTION ( 'NONE',  ( -1.000000000000000000, 0.000000000000000000, 0.000000000000000000 ) ) ;
#217 = DIRECTION ( 'NONE',  ( 1.000000000000000000, 0.000000000000000000, 0.000000000000000000 ) ) ;
#218 = ADVANCED_FACE ( 'NONE', ( #9, #506 ), #41, .F. ) ;
#219 = CARTESIAN_POINT ( 'NONE',  ( -9.999999999999989342, -10.00000000000000000, 24.99999999999999645 ) ) ;
#220 = VECTOR ( 'NONE', #174, 1000.000000000000000 ) ;
#221 = ORIENTED_EDGE ( 'NONE', *, *, #148, .T. ) ;
#222 = FACE_OUTER_BOUND ( 'NONE', #293, .T. ) ;
#223 = CARTESIAN_POINT ( 'NONE',  ( -10.00000000000000000, 0.000000000000000000, 0.000000000000000000 ) ) ;
#224 = ORIENTED_EDGE ( 'NONE', *, *, #376, .F. ) ;
#225 = CARTESIAN_POINT ( 'NONE',  ( 10.00000000000000000, 0.000000000000000000, 30.00000000000000000 ) ) ;
#226 = ORIENTED_EDGE ( 'NONE', *, *, #387, .F. ) ;
#227 = LINE ( 'NONE', #138, #372 ) ;
#228 = VECTOR ( 'NONE', #206, 1000.000000000000000 ) ;
#229 = ORIENTED_EDGE ( 'NONE', *, *, #429, .F. ) ;
#230 = AXIS2_PLACEMENT_3D ( 'NONE', #411, #123, #441 ) ;
#231 = VECTOR ( 'NONE', #401, 1000.000000000000000 ) ;
#232 = EDGE_CURVE ( 'NONE', #482, #431, #357, .T. ) ;
#233 = CARTESIAN_POINT ( 'NONE',  ( -6.000000000000000000, 18.00000000000000000, 30.00000000000000000 ) ) ;
#234 = EDGE_LOOP ( 'NONE', ( #68, #229, #51, #389 ) ) ;
#235 = LINE ( 'NONE', #115, #445 ) ;
#236 = CARTESIAN_POINT ( 'NONE',  ( -6.000000000000000000, 18.00000000000000000, 0.000000000000000000 ) ) ;
#237 = EDGE_CURVE ( 'NONE', #282, #267, #432, .T. ) ;
#238 = DIRECTION ( 'NONE',  ( 0.000000000000000000, -0.000000000000000000, 1.000000000000000000 ) ) ;
#239 = AXIS2_PLACEMENT_3D ( 'NONE', #26, #303, #54 ) ;
#240 = CYLINDRICAL_SURFACE ( 'NONE', #474, 4.000000000000000000 ) ;
#241 = DIRECTION ( 'NONE',  ( -0.000000000000000000, -0.000000000000000000, -1.000000000000000000 ) ) ;
#242 =( LENGTH_UNIT ( ) NAMED_UNIT ( * ) SI_UNIT ( .MILLI., .METRE. ) );
#243 = DIRECTION ( 'NONE',  ( 1.000000000000000000, 0.000000000000000000, -0.000000000000000000 ) ) ;
#244 = CARTESIAN_POINT ( 'NONE',  ( 6.000000000000000000, 18.00000000000000000, 30.00000000000000000 ) ) ;
#245 = ORIENTED_EDGE ( 'NONE', *, *, #406, .F. ) ;
#246 = EDGE_CURVE ( 'NONE', #526, #307, #398, .T. ) ;
#247 = AXIS2_PLACEMENT_3D ( 'NONE', #503, #288, #456 ) ;
#248 = LINE ( 'NONE', #173, #228 ) ;
#249 = DIRECTION ( 'NONE',  ( 1.000000000000000000, 0.000000000000000000, 0.000000000000000000 ) ) ;
#250 = EDGE_CURVE ( 'NONE', #256, #529, #266, .T. ) ;
#251 = DIRECTION ( 'NONE',  ( -1.000000000000000000, -0.000000000000000000, -0.000000000000000000 ) ) ;
#252 = VERTEX_POINT ( 'NONE', #469 ) ;
#253 = CARTESIAN_POINT ( 'NONE',  ( 0.000000000000000000, 0.000000000000000000, 4.999999999999997335 ) ) ;
#254 = CIRCLE ( 'NONE', #324, 3.500000000000000000 ) ;
#255 = DIRECTION ( 'NONE',  ( 0.000000000000000000, -1.000000000000000000, 0.000000000000000000 ) ) ;
#256 = VERTEX_POINT ( 'NONE', #60 ) ;
#257 = CARTESIAN_POINT ( 'NONE',  ( 10.00000000000000000, 0.000000000000000000, 30.00000000000000000 ) ) ;
#258 = FACE_OUTER_BOUND ( 'NONE', #79, .T. ) ;
#259 = ORIENTED_EDGE ( 'NONE', *, *, #494, .F. ) ;
#260 = DIRECTION ( 'NONE',  ( 1.000000000000000000, 0.000000000000000000, -0.000000000000000000 ) ) ;
#261 = DIRECTION ( 'NONE',  ( -1.000000000000000000, 0.000000000000000000, 0.000000000000000000 ) ) ;
#262 = VERTEX_POINT ( 'NONE', #478 ) ;
#263 = APPLICATION_PROTOCOL_DEFINITION ( 'draft international standard', 'automotive_design', 1998, #505 ) ;
#264 = CARTESIAN_POINT ( 'NONE',  ( 10.00000000000000000, 0.000000000000000000, 30.00000000000000000 ) ) ;
#265 = ORIENTED_EDGE ( 'NONE', *, *, #406, .T. ) ;
#266 = LINE ( 'NONE', #471, #309 ) ;
#267 = VERTEX_POINT ( 'NONE', #106 ) ;
#268 = DIRECTION ( 'NONE',  ( 1.000000000000000000, 0.000000000000000000, 0.000000000000000000 ) ) ;
#269 = EDGE_CURVE ( 'NONE', #149, #526, #525, .T. ) ;
#270 = ORIENTED_EDGE ( 'NONE', *, *, #14, .F. ) ;
#271 = DIRECTION ( 'NONE',  ( -1.000000000000000000, 0.000000000000000000, 0.000000000000000000 ) ) ;
#272 = ORIENTED_EDGE ( 'NONE', *, *, #36, .T. ) ;
#273 = CIRCLE ( 'NONE', #334, 10.00000000000000000 ) ;
#274 = DIRECTION ( 'NONE',  ( 1.000000000000000000, -0.000000000000000000, -0.000000000000000000 ) ) ;
#275 = EDGE_LOOP ( 'NONE', ( #214, #224, #142, #403 ) ) ;
#276 = EDGE_CURVE ( 'NONE', #62, #316, #227, .T. ) ;
#277 = ADVANCED_BREP_SHAPE_REPRESENTATION ( 'Par\X2\00e7\X0\a 83', ( #16, #475 ), #383 ) ;
#278 =( NAMED_UNIT ( * ) PLANE_ANGLE_UNIT ( ) SI_UNIT ( $, .RADIAN. ) );
#279 = ORIENTED_EDGE ( 'NONE', *, *, #502, .T. ) ;
#280 = CIRCLE ( 'NONE', #535, 4.000000000000000000 ) ;
#281 = VECTOR ( 'NONE', #315, 1000.000000000000000 ) ;
#282 = VERTEX_POINT ( 'NONE', #21 ) ;
#283 = FACE_OUTER_BOUND ( 'NONE', #96, .T. ) ;
#284 = LINE ( 'NONE', #244, #30 ) ;
#285 = EDGE_CURVE ( 'NONE', #345, #360, #361, .T. ) ;
#286 = CARTESIAN_POINT ( 'NONE',  ( 0.000000000000000000, 0.000000000000000000, 30.00000000000000000 ) ) ;
#287 = AXIS2_PLACEMENT_3D ( 'NONE', #257, #18, #42 ) ;
#288 = DIRECTION ( 'NONE',  ( -0.000000000000000000, -0.000000000000000000, -1.000000000000000000 ) ) ;
#289 = ORIENTED_EDGE ( 'NONE', *, *, #5, .F. ) ;
#290 = EDGE_CURVE ( 'NONE', #70, #256, #158, .T. ) ;
#291 = DIRECTION ( 'NONE',  ( 0.000000000000000000, 1.000000000000000000, 0.000000000000000000 ) ) ;
#292 = CARTESIAN_POINT ( 'NONE',  ( -10.00000000000000000, 0.000000000000000000, 30.00000000000000000 ) ) ;
#293 = EDGE_LOOP ( 'NONE', ( #449, #86, #501, #139, #353, #55, #226, #93 ) ) ;
#294 = CARTESIAN_POINT ( 'NONE',  ( 10.00000000000000000, 0.000000000000000000, 0.000000000000000000 ) ) ;
#295 = CARTESIAN_POINT ( 'NONE',  ( 6.000000000000000000, 18.00000000000000000, 30.00000000000000000 ) ) ;
#296 = ORIENTED_EDGE ( 'NONE', *, *, #232, .T. ) ;
#297 = PRESENTATION_LAYER_ASSIGNMENT (  '', '', ( #175 ) ) ;
#298 = PLANE ( 'NONE',  #195 ) ;
#299 = VECTOR ( 'NONE', #422, 1000.000000000000000 ) ;
#300 = CARTESIAN_POINT ( 'NONE',  ( 10.00000000000000000, -10.00000000000000000, 24.99999999999999645 ) ) ;
#301 = ORIENTED_EDGE ( 'NONE', *, *, #387, .T. ) ;
#302 = DIRECTION ( 'NONE',  ( 1.000000000000000000, 0.000000000000000000, -0.000000000000000000 ) ) ;
#303 = DIRECTION ( 'NONE',  ( -0.000000000000000000, -0.000000000000000000, -1.000000000000000000 ) ) ;
#304 = ADVANCED_FACE ( 'NONE', ( #182 ), #392, .F. ) ;
#305 = LINE ( 'NONE', #294, #186 ) ;
#306 = FACE_OUTER_BOUND ( 'NONE', #74, .T. ) ;
#307 = VERTEX_POINT ( 'NONE', #519 ) ;
#308 = CARTESIAN_POINT ( 'NONE',  ( 0.000000000000000000, 0.000000000000000000, 30.00000000000000000 ) ) ;
#309 = VECTOR ( 'NONE', #513, 1000.000000000000000 ) ;
#310 = ORIENTED_EDGE ( 'NONE', *, *, #153, .T. ) ;
#311 = EDGE_CURVE ( 'NONE', #431, #360, #177, .T. ) ;
#312 = DIRECTION ( 'NONE',  ( 1.000000000000000000, 0.000000000000000000, 0.000000000000000000 ) ) ;
#313 = VERTEX_POINT ( 'NONE', #264 ) ;
#314 = APPLICATION_PROTOCOL_DEFINITION ( 'draft international standard', 'automotive_design', 1998, #536 ) ;
#315 = DIRECTION ( 'NONE',  ( -0.000000000000000000, -0.000000000000000000, 1.000000000000000000 ) ) ;
#316 = VERTEX_POINT ( 'NONE', #58 ) ;
#317 = EDGE_LOOP ( 'NONE', ( #497, #272 ) ) ;
#318 = VECTOR ( 'NONE', #105, 1000.000000000000000 ) ;
#319 = FILL_AREA_STYLE_COLOUR ( '', #156 ) ;
#320 = PRODUCT_DEFINITION_CONTEXT ( 'detailed design', #536, 'design' ) ;
#321 = CARTESIAN_POINT ( 'NONE',  ( 0.000000000000000000, 0.000000000000000000, 30.00000000000000000 ) ) ;
#322 = DIRECTION ( 'NONE',  ( -1.000000000000000000, 0.000000000000000000, 0.000000000000000000 ) ) ;
#323 = EDGE_LOOP ( 'NONE', ( #380, #399, #3, #34, #524, #178, #350, #17 ) ) ;
#324 = AXIS2_PLACEMENT_3D ( 'NONE', #286, #205, #466 ) ;
#325 = FACE_OUTER_BOUND ( 'NONE', #275, .T. ) ;
#326 = EDGE_CURVE ( 'NONE', #267, #25, #273, .T. ) ;
#327 = DIRECTION ( 'NONE',  ( -0.000000000000000000, -0.000000000000000000, -1.000000000000000000 ) ) ;
#328 = UNCERTAINTY_MEASURE_WITH_UNIT (LENGTH_MEASURE( 1.000000000000000082E-05 ), #390, 'distance_accuracy_value', 'NONE');
#329 = ORIENTED_EDGE ( 'NONE', *, *, #69, .F. ) ;
#330 = ORIENTED_EDGE ( 'NONE', *, *, #61, .F. ) ;
#331 = DIRECTION ( 'NONE',  ( -1.000000000000000000, 0.000000000000000000, 0.000000000000000000 ) ) ;
#332 = DIRECTION ( 'NONE',  ( 0.000000000000000000, -0.000000000000000000, -1.000000000000000000 ) ) ;
#333 = CIRCLE ( 'NONE', #230, 3.500000000000000000 ) ;
#334 = AXIS2_PLACEMENT_3D ( 'NONE', #179, #430, #312 ) ;
#335 = DIRECTION ( 'NONE',  ( -1.000000000000000000, 0.000000000000000000, 0.000000000000000000 ) ) ;
#336 = CIRCLE ( 'NONE', #373, 10.00000000000000000 ) ;
#337 = PLANE ( 'NONE',  #44 ) ;
#338 = ORIENTED_EDGE ( 'NONE', *, *, #204, .T. ) ;
#339 = ADVANCED_FACE ( 'NONE', ( #306 ), #359, .F. ) ;
#340 = CARTESIAN_POINT ( 'NONE',  ( 10.00000000000000000, 0.000000000000000000, 30.00000000000000000 ) ) ;
#341 = DIRECTION ( 'NONE',  ( -0.000000000000000000, -0.000000000000000000, -1.000000000000000000 ) ) ;
#342 = ORIENTED_EDGE ( 'NONE', *, *, #285, .F. ) ;
#343 = CARTESIAN_POINT ( 'NONE',  ( -10.00000000000000000, 18.00000000000000000, 30.00000000000000000 ) ) ;
#344 = PLANE ( 'NONE',  #391 ) ;
#345 = VERTEX_POINT ( 'NONE', #438 ) ;
#346 = CIRCLE ( 'NONE', #108, 3.500000000000000000 ) ;
#347 = LINE ( 'NONE', #343, #421 ) ;
#348 = EDGE_CURVE ( 'NONE', #99, #431, #98, .T. ) ;
#349 = CARTESIAN_POINT ( 'NONE',  ( -10.00000000000000000, 0.000000000000000000, 30.00000000000000000 ) ) ;
#350 = ORIENTED_EDGE ( 'NONE', *, *, #237, .T. ) ;
#351 =( NAMED_UNIT ( * ) SI_UNIT ( $, .STERADIAN. ) SOLID_ANGLE_UNIT ( ) );
#352 = DIRECTION ( 'NONE',  ( -0.000000000000000000, -0.000000000000000000, -1.000000000000000000 ) ) ;
#353 = ORIENTED_EDGE ( 'NONE', *, *, #148, .F. ) ;
#354 = DIRECTION ( 'NONE',  ( -0.000000000000000000, -0.000000000000000000, -1.000000000000000000 ) ) ;
#355 = EDGE_LOOP ( 'NONE', ( #405, #145 ) ) ;
#356 = EDGE_CURVE ( 'NONE', #447, #511, #24, .T. ) ;
#357 = LINE ( 'NONE', #395, #231 ) ;
#358 = ORIENTED_EDGE ( 'NONE', *, *, #510, .F. ) ;
#359 = CYLINDRICAL_SURFACE ( 'NONE', #365, 3.500000000000000000 ) ;
#360 = VERTEX_POINT ( 'NONE', #480 ) ;
#361 = LINE ( 'NONE', #225, #318 ) ;
#362 = ORIENTED_EDGE ( 'NONE', *, *, #539, .T. ) ;
#363 = MECHANICAL_DESIGN_GEOMETRIC_PRESENTATION_REPRESENTATION (  '', ( #175 ), #37 ) ;
#364 = CARTESIAN_POINT ( 'NONE',  ( 3.500000000000000000, 4.286263797015736595E-16, 4.999999999999997335 ) ) ;
#365 = AXIS2_PLACEMENT_3D ( 'NONE', #308, #354, #64 ) ;
#366 = ORIENTED_EDGE ( 'NONE', *, *, #412, .F. ) ;
#367 = EDGE_LOOP ( 'NONE', ( #59, #310, #279, #111, #483, #338 ) ) ;
#368 = CARTESIAN_POINT ( 'NONE',  ( -3.500000000000000000, 0.000000000000000000, 30.00000000000000000 ) ) ;
#369 = ADVANCED_FACE ( 'NONE', ( #476 ), #103, .T. ) ;
#370 = CARTESIAN_POINT ( 'NONE',  ( 10.00000000000000000, 13.99999999999999822, 30.00000000000000000 ) ) ;
#371 = SURFACE_STYLE_FILL_AREA ( #484 ) ;
#372 = VECTOR ( 'NONE', #190, 1000.000000000000000 ) ;
#373 = AXIS2_PLACEMENT_3D ( 'NONE', #253, #215, #335 ) ;
#374 = DIRECTION ( 'NONE',  ( 0.000000000000000000, 1.000000000000000000, 0.000000000000000000 ) ) ;
#375 = ORIENTED_EDGE ( 'NONE', *, *, #311, .F. ) ;
#376 = EDGE_CURVE ( 'NONE', #378, #70, #67, .T. ) ;
#377 = LINE ( 'NONE', #292, #517 ) ;
#378 = VERTEX_POINT ( 'NONE', #236 ) ;
#379 = DIRECTION ( 'NONE',  ( -0.000000000000000000, 0.000000000000000000, -1.000000000000000000 ) ) ;
#380 = ORIENTED_EDGE ( 'NONE', *, *, #250, .F. ) ;
#381 = CIRCLE ( 'NONE', #46, 3.500000000000000000 ) ;
#382 = CARTESIAN_POINT ( 'NONE',  ( 0.000000000000000000, 0.000000000000000000, 0.000000000000000000 ) ) ;
#383 =( GEOMETRIC_REPRESENTATION_CONTEXT ( 3 ) GLOBAL_UNCERTAINTY_ASSIGNED_CONTEXT ( ( #328 ) ) GLOBAL_UNIT_ASSIGNED_CONTEXT ( ( #390, #212, #351 ) ) REPRESENTATION_CONTEXT ( 'NONE', 'WORKASPACE' ) );
#384 = CARTESIAN_POINT ( 'NONE',  ( 0.000000000000000000, 0.000000000000000000, 30.00000000000000000 ) ) ;
#385 = ORIENTED_EDGE ( 'NONE', *, *, #444, .F. ) ;
#386 = CARTESIAN_POINT ( 'NONE',  ( -6.000000000000000000, 18.00000000000000000, 30.00000000000000000 ) ) ;
#387 = EDGE_CURVE ( 'NONE', #345, #447, #120, .T. ) ;
#388 = DIRECTION ( 'NONE',  ( 1.000000000000000000, 0.000000000000000000, 0.000000000000000000 ) ) ;
#389 = ORIENTED_EDGE ( 'NONE', *, *, #124, .F. ) ;
#390 =( LENGTH_UNIT ( ) NAMED_UNIT ( * ) SI_UNIT ( .MILLI., .METRE. ) );
#391 = AXIS2_PLACEMENT_3D ( 'NONE', #349, #509, #418 ) ;
#392 = CYLINDRICAL_SURFACE ( 'NONE', #239, 3.500000000000000000 ) ;
#393 = ORIENTED_EDGE ( 'NONE', *, *, #61, .T. ) ;
#394 = CARTESIAN_POINT ( 'NONE',  ( 6.000000000000000000, 18.00000000000000000, 0.000000000000000000 ) ) ;
#395 = CARTESIAN_POINT ( 'NONE',  ( -10.00000000000000000, 0.000000000000000000, 30.00000000000000000 ) ) ;
#396 = ADVANCED_FACE ( 'NONE', ( #485, #283 ), #73, .F. ) ;
#397 = VERTEX_POINT ( 'NONE', #202 ) ;
#398 = LINE ( 'NONE', #144, #91 ) ;
#399 = ORIENTED_EDGE ( 'NONE', *, *, #77, .T. ) ;
#400 = CIRCLE ( 'NONE', #166, 4.000000000000000000 ) ;
#401 = DIRECTION ( 'NONE',  ( -0.000000000000000000, -0.000000000000000000, -1.000000000000000000 ) ) ;
#402 = VECTOR ( 'NONE', #251, 1000.000000000000000 ) ;
#403 = ORIENTED_EDGE ( 'NONE', *, *, #77, .F. ) ;
#404 = CARTESIAN_POINT ( 'NONE',  ( 0.000000000000000000, 0.000000000000000000, 30.00000000000000000 ) ) ;
#405 = ORIENTED_EDGE ( 'NONE', *, *, #269, .F. ) ;
#406 = EDGE_CURVE ( 'NONE', #282, #511, #532, .T. ) ;
#407 = CARTESIAN_POINT ( 'NONE',  ( 10.00000000000000000, 0.000000000000000000, 24.99999999999999645 ) ) ;
#408 = DIRECTION ( 'NONE',  ( 0.000000000000000000, -0.000000000000000000, 1.000000000000000000 ) ) ;
#409 = CIRCLE ( 'NONE', #167, 3.500000000000000000 ) ;
#410 = CARTESIAN_POINT ( 'NONE',  ( -10.00000000000000000, 0.000000000000000000, 0.000000000000000000 ) ) ;
#411 = CARTESIAN_POINT ( 'NONE',  ( 0.000000000000000000, 0.000000000000000000, 0.000000000000000000 ) ) ;
#412 = EDGE_CURVE ( 'NONE', #62, #439, #409, .T. ) ;
#413 = VECTOR ( 'NONE', #81, 1000.000000000000000 ) ;
#414 = EDGE_LOOP ( 'NONE', ( #301, #270, #433, #129 ) ) ;
#415 = AXIS2_PLACEMENT_3D ( 'NONE', #321, #241, #331 ) ;
#416 = ADVANCED_FACE ( 'NONE', ( #488 ), #162, .F. ) ;
#417 = FACE_OUTER_BOUND ( 'NONE', #147, .T. ) ;
#418 = DIRECTION ( 'NONE',  ( 0.000000000000000000, 0.000000000000000000, -1.000000000000000000 ) ) ;
#419 = CYLINDRICAL_SURFACE ( 'NONE', #247, 10.00000000000000000 ) ;
#420 = ORIENTED_EDGE ( 'NONE', *, *, #326, .F. ) ;
#421 = VECTOR ( 'NONE', #53, 1000.000000000000000 ) ;
#422 = DIRECTION ( 'NONE',  ( -0.000000000000000000, -1.000000000000000000, -0.000000000000000000 ) ) ;
#423 = ADVANCED_FACE ( 'NONE', ( #325 ), #240, .T. ) ;
#424 = FACE_BOUND ( 'NONE', #355, .T. ) ;
#425 = DIRECTION ( 'NONE',  ( -0.000000000000000000, -0.000000000000000000, 1.000000000000000000 ) ) ;
#426 = CARTESIAN_POINT ( 'NONE',  ( -9.999999999999989342, 0.000000000000000000, 4.999999999999997335 ) ) ;
#427 = DIRECTION ( 'NONE',  ( 0.000000000000000000, 0.000000000000000000, 1.000000000000000000 ) ) ;
#428 = CARTESIAN_POINT ( 'NONE',  ( 0.000000000000000000, 0.000000000000000000, 30.00000000000000000 ) ) ;
#429 = EDGE_CURVE ( 'NONE', #439, #62, #381, .T. ) ;
#430 = DIRECTION ( 'NONE',  ( 0.000000000000000000, -0.000000000000000000, 1.000000000000000000 ) ) ;
#431 = VERTEX_POINT ( 'NONE', #410 ) ;
#432 = LINE ( 'NONE', #219, #66 ) ;
#433 = ORIENTED_EDGE ( 'NONE', *, *, #454, .F. ) ;
#434 = DIRECTION ( 'NONE',  ( 0.000000000000000000, 0.000000000000000000, 1.000000000000000000 ) ) ;
#435 = DIRECTION ( 'NONE',  ( 0.000000000000000000, 0.000000000000000000, 1.000000000000000000 ) ) ;
#436 = ORIENTED_EDGE ( 'NONE', *, *, #52, .T. ) ;
#437 = AXIS2_PLACEMENT_3D ( 'NONE', #404, #184, #268 ) ;
#438 = CARTESIAN_POINT ( 'NONE',  ( 10.00000000000000000, 0.000000000000000000, 4.999999999999997335 ) ) ;
#439 = VERTEX_POINT ( 'NONE', #116 ) ;
#440 = EDGE_CURVE ( 'NONE', #439, #252, #75, .T. ) ;
#441 = DIRECTION ( 'NONE',  ( 1.000000000000000000, 0.000000000000000000, 0.000000000000000000 ) ) ;
#442 = DIRECTION ( 'NONE',  ( -0.000000000000000000, -0.000000000000000000, 1.000000000000000000 ) ) ;
#443 = CARTESIAN_POINT ( 'NONE',  ( -9.999999999999989342, 10.00000000000000000, 24.99999999999999645 ) ) ;
#444 = EDGE_CURVE ( 'NONE', #262, #90, #531, .T. ) ;
#445 = VECTOR ( 'NONE', #160, 1000.000000000000000 ) ;
#446 = AXIS2_PLACEMENT_3D ( 'NONE', #95, #435, #15 ) ;
#447 = VERTEX_POINT ( 'NONE', #119 ) ;
#448 = CARTESIAN_POINT ( 'NONE',  ( 0.000000000000000000, 0.000000000000000000, 4.999999999999997335 ) ) ;
#449 = ORIENTED_EDGE ( 'NONE', *, *, #510, .T. ) ;
#450 = DIRECTION ( 'NONE',  ( -0.000000000000000000, -0.000000000000000000, -1.000000000000000000 ) ) ;
#451 = PRODUCT_DEFINITION_SHAPE ( 'NONE', 'NONE',  #164 ) ;
#452 = VECTOR ( 'NONE', #515, 1000.000000000000000 ) ;
#453 = PRODUCT_DEFINITION_FORMATION_WITH_SPECIFIED_SOURCE ( 'ANY', '', #113, .NOT_KNOWN. ) ;
#454 = EDGE_CURVE ( 'NONE', #482, #397, #47, .T. ) ;
#455 = DIRECTION ( 'NONE',  ( -1.000000000000000000, 0.000000000000000000, 0.000000000000000000 ) ) ;
#456 = DIRECTION ( 'NONE',  ( -1.000000000000000000, 0.000000000000000000, 0.000000000000000000 ) ) ;
#457 = DIRECTION ( 'NONE',  ( -0.000000000000000000, -0.000000000000000000, -1.000000000000000000 ) ) ;
#458 = CARTESIAN_POINT ( 'NONE',  ( -3.500000000000000000, 0.000000000000000000, 30.00000000000000000 ) ) ;
#459 = ORIENTED_EDGE ( 'NONE', *, *, #246, .F. ) ;
#460 = DIRECTION ( 'NONE',  ( 0.000000000000000000, 0.000000000000000000, 1.000000000000000000 ) ) ;
#461 = ADVANCED_FACE ( 'NONE', ( #468, #512 ), #136, .F. ) ;
#462 = DIRECTION ( 'NONE',  ( 1.000000000000000000, 0.000000000000000000, 0.000000000000000000 ) ) ;
#463 = VECTOR ( 'NONE', #425, 1000.000000000000000 ) ;
#464 = VECTOR ( 'NONE', #327, 1000.000000000000000 ) ;
#465 = AXIS2_PLACEMENT_3D ( 'NONE', #137, #427, #146 ) ;
#466 = DIRECTION ( 'NONE',  ( 1.000000000000000000, 0.000000000000000000, 0.000000000000000000 ) ) ;
#467 = ORIENTED_EDGE ( 'NONE', *, *, #197, .F. ) ;
#468 = FACE_OUTER_BOUND ( 'NONE', #181, .T. ) ;
#469 = CARTESIAN_POINT ( 'NONE',  ( -3.500000000000000000, 0.000000000000000000, 0.000000000000000000 ) ) ;
#470 = ADVANCED_FACE ( 'NONE', ( #222 ), #97, .F. ) ;
#471 = CARTESIAN_POINT ( 'NONE',  ( -10.00000000000000000, 0.000000000000000000, 30.00000000000000000 ) ) ;
#472 = ORIENTED_EDGE ( 'NONE', *, *, #356, .T. ) ;
#473 = PRODUCT_CONTEXT ( 'NONE', #505, 'mechanical' ) ;
#474 = AXIS2_PLACEMENT_3D ( 'NONE', #495, #125, #455 ) ;
#475 = AXIS2_PLACEMENT_3D ( 'NONE', #150, #434, #71 ) ;
#476 = FACE_OUTER_BOUND ( 'NONE', #486, .T. ) ;
#477 = ORIENTED_EDGE ( 'NONE', *, *, #311, .T. ) ;
#478 = CARTESIAN_POINT ( 'NONE',  ( 10.00000000000000000, 13.99999999999999822, 0.000000000000000000 ) ) ;
#479 = ORIENTED_EDGE ( 'NONE', *, *, #52, .F. ) ;
#480 = CARTESIAN_POINT ( 'NONE',  ( 10.00000000000000000, 0.000000000000000000, 0.000000000000000000 ) ) ;
#481 = ADVANCED_FACE ( 'NONE', ( #499 ), #127, .F. ) ;
#482 = VERTEX_POINT ( 'NONE', #426 ) ;
#483 = ORIENTED_EDGE ( 'NONE', *, *, #250, .T. ) ;
#484 = FILL_AREA_STYLE ('',( #319 ) ) ;
#485 = FACE_BOUND ( 'NONE', #317, .T. ) ;
#486 = EDGE_LOOP ( 'NONE', ( #342, #362, #296, #477 ) ) ;
#487 = PRODUCT_RELATED_PRODUCT_CATEGORY ( 'part', '', ( #113 ) ) ;
#488 = FACE_OUTER_BOUND ( 'NONE', #20, .T. ) ;
#489 = CIRCLE ( 'NONE', #537, 3.500000000000000000 ) ;
#490 = DIRECTION ( 'NONE',  ( -1.000000000000000000, 0.000000000000000000, 0.000000000000000000 ) ) ;
#491 = CARTESIAN_POINT ( 'NONE',  ( 0.000000000000000000, 0.000000000000000000, 24.99999999999999645 ) ) ;
#492 = VERTEX_POINT ( 'NONE', #394 ) ;
#493 = DIRECTION ( 'NONE',  ( -0.000000000000000000, -0.000000000000000000, -1.000000000000000000 ) ) ;
#494 = EDGE_CURVE ( 'NONE', #313, #25, #130, .T. ) ;
#495 = CARTESIAN_POINT ( 'NONE',  ( -6.000000000000000000, 13.99999999999999822, 30.00000000000000000 ) ) ;
#496 = CARTESIAN_POINT ( 'NONE',  ( -10.00000000000000000, 18.00000000000000000, 30.00000000000000000 ) ) ;
#497 = ORIENTED_EDGE ( 'NONE', *, *, #521, .T. ) ;
#498 = AXIS2_PLACEMENT_3D ( 'NONE', #428, #457, #132 ) ;
#499 = FACE_OUTER_BOUND ( 'NONE', #27, .T. ) ;
#500 = CARTESIAN_POINT ( 'NONE',  ( 0.000000000000000000, 0.000000000000000000, 0.000000000000000000 ) ) ;
#501 = ORIENTED_EDGE ( 'NONE', *, *, #133, .F. ) ;
#502 = EDGE_CURVE ( 'NONE', #122, #70, #347, .T. ) ;
#503 = CARTESIAN_POINT ( 'NONE',  ( 0.000000000000000000, 0.000000000000000000, 30.00000000000000000 ) ) ;
#504 = FACE_OUTER_BOUND ( 'NONE', #367, .T. ) ;
#505 = APPLICATION_CONTEXT ( 'automotive_design' ) ;
#506 = FACE_OUTER_BOUND ( 'NONE', #414, .T. ) ;
#507 = CIRCLE ( 'NONE', #117, 10.00000000000000000 ) ;
#508 = DIRECTION ( 'NONE',  ( 0.000000000000000000, -0.000000000000000000, 1.000000000000000000 ) ) ;
#509 = DIRECTION ( 'NONE',  ( 1.000000000000000000, 0.000000000000000000, 0.000000000000000000 ) ) ;
#510 = EDGE_CURVE ( 'NONE', #360, #262, #305, .T. ) ;
#511 = VERTEX_POINT ( 'NONE', #207 ) ;
#512 = FACE_BOUND ( 'NONE', #8, .T. ) ;
#513 = DIRECTION ( 'NONE',  ( -0.000000000000000000, -1.000000000000000000, -0.000000000000000000 ) ) ;
#514 = ORIENTED_EDGE ( 'NONE', *, *, #189, .T. ) ;
#515 = DIRECTION ( 'NONE',  ( -0.000000000000000000, -1.000000000000000000, -0.000000000000000000 ) ) ;
#516 = ORIENTED_EDGE ( 'NONE', *, *, #276, .T. ) ;
#517 = VECTOR ( 'NONE', #450, 1000.000000000000000 ) ;
#518 = AXIS2_PLACEMENT_3D ( 'NONE', #382, #172, #260 ) ;
#519 = CARTESIAN_POINT ( 'NONE',  ( 3.500000000000000000, 4.286263797015736595E-16, 24.99999999999999645 ) ) ;
#520 = EDGE_LOOP ( 'NONE', ( #472, #245, #329, #152 ) ) ;
#521 = EDGE_CURVE ( 'NONE', #151, #307, #489, .T. ) ;
#522 = DIRECTION ( 'NONE',  ( -0.000000000000000000, -0.000000000000000000, -1.000000000000000000 ) ) ;
#523 = ORIENTED_EDGE ( 'NONE', *, *, #429, .T. ) ;
#524 = ORIENTED_EDGE ( 'NONE', *, *, #454, .T. ) ;
#525 = CIRCLE ( 'NONE', #437, 3.500000000000000000 ) ;
#526 = VERTEX_POINT ( 'NONE', #84 ) ;
#527 = ADVANCED_FACE ( 'NONE', ( #504, #424 ), #298, .T. ) ;
#528 = DIRECTION ( 'NONE',  ( -0.000000000000000000, 1.000000000000000000, -0.000000000000000000 ) ) ;
#529 = VERTEX_POINT ( 'NONE', #169 ) ;
#530 = ORIENTED_EDGE ( 'NONE', *, *, #348, .F. ) ;
#531 = LINE ( 'NONE', #370, #80 ) ;
#532 = LINE ( 'NONE', #154, #101 ) ;
#533 = PLANE ( 'NONE',  #193 ) ;
#534 = DIRECTION ( 'NONE',  ( -0.000000000000000000, -0.000000000000000000, -1.000000000000000000 ) ) ;
#535 = AXIS2_PLACEMENT_3D ( 'NONE', #168, #341, #388 ) ;
#536 = APPLICATION_CONTEXT ( 'automotive_design' ) ;
#537 = AXIS2_PLACEMENT_3D ( 'NONE', #87, #508, #217 ) ;
#538 = ORIENTED_EDGE ( 'NONE', *, *, #197, .T. ) ;
#539 = EDGE_CURVE ( 'NONE', #345, #482, #336, .T. ) ;
#540 = FACE_OUTER_BOUND ( 'NONE', #520, .T. ) ;
#541 = CARTESIAN_POINT ( 'NONE',  ( 10.00000000000000000, 13.99999999999999822, 30.00000000000000000 ) ) ;
ENDSEC;
END-ISO-10303-21;
